<svg width="115" height="40" viewBox="0 0 115 40" fill="none" xmlns="http://www.w3.org/2000/svg">
<path d="M110.741 39.75H4.25926C2.04824 39.75 0.25 37.701 0.25 35V5C0.25 2.29898 2.04824 0.25 4.25926 0.25H110.741C112.952 0.25 114.75 2.29898 114.75 5V35C114.75 37.701 112.952 39.75 110.741 39.75Z" fill="black" stroke="white" stroke-width="0.5"/>
<path d="M26.6999 23.5C26.1999 24.6 25.9999 25.1 25.2999 26.1C24.3999 27.5 23.0999 29.2 21.5999 29.2C20.1999 29.2 19.8999 28.3 17.9999 28.3C16.0999 28.3 15.6999 29.2 14.2999 29.2C12.6999 29.2 11.4999 27.7 10.6999 26.3C8.19992 22.5 7.89992 18 9.49992 15.7C10.5999 14 12.2999 13 13.8999 13C15.5999 13 16.5999 13.9 17.9999 13.9C19.2999 13.9 20.0999 13 21.9999 13C23.3999 13 24.9999 13.8 26.0999 15.1C22.4999 17.1 22.9999 22.2 26.6999 23.5Z" fill="white"/>
<path d="M20.4999 11.4C21.1999 10.5 21.6999 9.2 21.4999 8C20.3999 8.1 18.9999 8.8 18.2999 9.7C17.5999 10.6 16.9999 11.8 17.1999 13.1C18.4999 13.1 19.7999 12.4 20.4999 11.4Z" fill="white"/>
<path d="M35.9999 7.6001C37.8999 7.6001 38.9999 8.8001 38.9999 10.8001C38.9999 12.8001 37.8999 14.0001 35.9999 14.0001H33.8999V7.6001H35.9999ZM34.6999 13.2001H35.9999C37.3999 13.2001 38.1999 12.3001 38.1999 10.7001C38.1999 9.1001 37.3999 8.2001 35.9999 8.2001H34.6999V13.2001Z" fill="white"/>
<path d="M39.5999 11.6001C39.5999 10.1001 40.4999 9.20007 41.6999 9.20007C42.9999 9.20007 43.7999 10.1001 43.7999 11.6001C43.7999 13.1001 42.8999 14.0001 41.6999 14.0001C40.4999 14.0001 39.5999 13.1001 39.5999 11.6001ZM43.0999 11.6001C43.0999 10.5001 42.5999 9.90007 41.7999 9.90007C40.9999 9.90007 40.4999 10.5001 40.4999 11.6001C40.4999 12.7001 40.9999 13.3001 41.7999 13.3001C42.5999 13.3001 43.0999 12.7001 43.0999 11.6001Z" fill="white"/>
<path d="M49.1999 13.9H48.3999L47.3999 10.4L46.3999 13.9H45.5999L44.2999 9.30005H44.9999L45.8999 13L46.8999 9.30005H47.5999L48.5999 13L49.4999 9.30005H50.2999L49.1999 13.9Z" fill="white"/>
<path d="M51.0999 9.40005H51.7999V10.1C52.0999 9.60005 52.4999 9.30005 53.1999 9.30005C54.1999 9.30005 54.7999 9.90005 54.7999 11V14H53.9999V11.2C53.9999 10.5 53.6999 10.1 52.9999 10.1C52.2999 10.1 51.7999 10.6 51.7999 11.4V14.1H50.9999V9.40005H51.0999Z" fill="white"/>
<path d="M55.7999 7.6001H56.5999V13.9001H55.7999V7.6001Z" fill="white"/>
<path d="M57.3999 11.6001C57.3999 10.1001 58.2999 9.20007 59.4999 9.20007C60.7999 9.20007 61.5999 10.1001 61.5999 11.6001C61.5999 13.1001 60.6999 14.0001 59.4999 14.0001C58.2999 14.0001 57.3999 13.1001 57.3999 11.6001ZM60.8999 11.6001C60.8999 10.5001 60.3999 9.90007 59.5999 9.90007C58.7999 9.90007 58.2999 10.5001 58.2999 11.6001C58.2999 12.7001 58.7999 13.3001 59.5999 13.3001C60.2999 13.3001 60.8999 12.7001 60.8999 11.6001Z" fill="white"/>
<path d="M62.1999 12.6001C62.1999 11.8001 62.7999 11.3001 63.8999 11.3001L65.1999 11.2001V10.8001C65.1999 10.2001 64.7999 9.90007 64.1999 9.90007C63.5999 9.90007 63.1999 10.2001 63.0999 10.6001H62.3999C62.4999 9.80007 63.0999 9.20007 64.1999 9.20007C65.2999 9.20007 65.8999 9.80007 65.8999 10.7001V13.9001H65.1999V13.1001C64.8999 13.6001 64.2999 14.0001 63.6999 14.0001C62.7999 14.0001 62.1999 13.4001 62.1999 12.6001ZM65.1999 12.2001V11.8001L63.9999 11.9001C63.3999 11.9001 62.9999 12.2001 62.9999 12.6001C62.9999 13.0001 63.3999 13.3001 63.8999 13.3001C64.5999 13.3001 65.1999 12.8001 65.1999 12.2001Z" fill="white"/>
<path d="M66.6999 11.6001C66.6999 10.2001 67.4999 9.2001 68.5999 9.2001C69.2999 9.2001 69.7999 9.5001 70.0999 10.0001V7.6001H70.8999V13.9001H70.1999V13.1001C69.8999 13.6001 69.3999 14.0001 68.6999 14.0001C67.4999 14.0001 66.6999 13.1001 66.6999 11.6001ZM67.4999 11.6001C67.4999 12.6001 67.9999 13.3001 68.7999 13.3001C69.5999 13.3001 70.0999 12.6001 70.0999 11.6001C70.0999 10.6001 69.5999 9.9001 68.7999 9.9001C67.9999 9.9001 67.4999 10.6001 67.4999 11.6001Z" fill="white"/>
<path d="M73.4999 11.6001C73.4999 10.1001 74.3999 9.20007 75.5999 9.20007C76.8999 9.20007 77.6999 10.1001 77.6999 11.6001C77.6999 13.1001 76.7999 14.0001 75.5999 14.0001C74.3999 14.0001 73.4999 13.1001 73.4999 11.6001ZM76.9999 11.6001C76.9999 10.5001 76.4999 9.90007 75.6999 9.90007C74.8999 9.90007 74.3999 10.5001 74.3999 11.6001C74.3999 12.7001 74.8999 13.3001 75.6999 13.3001C76.4999 13.3001 76.9999 12.7001 76.9999 11.6001Z" fill="white"/>
<path d="M78.4999 9.40005H79.1999V10.1C79.4999 9.60005 79.8999 9.30005 80.5999 9.30005C81.5999 9.30005 82.1999 9.90005 82.1999 11V14H81.3999V11.2C81.3999 10.5 81.0999 10.1 80.3999 10.1C79.6999 10.1 79.1999 10.6 79.1999 11.4V14.1H78.3999V9.40005H78.4999Z" fill="white"/>
<path d="M86.0999 8.20007V9.30007H86.9999V10.0001H86.0999V12.7001C86.0999 13.1001 86.2999 13.3001 86.6999 13.3001C86.7999 13.3001 86.9999 13.3001 86.9999 13.3001V13.9001C86.8999 13.9001 86.6999 13.9001 86.4999 13.9001C85.6999 13.9001 85.2999 13.6001 85.2999 12.7001V10.0001H84.5999V9.40007H85.2999V8.20007H86.0999Z" fill="white"/>
<path d="M87.8999 7.6001H88.6999V10.1001C88.9999 9.6001 89.4999 9.3001 90.0999 9.3001C91.0999 9.3001 91.6999 10.0001 91.6999 11.0001V14.0001H90.8999V11.2001C90.8999 10.5001 90.4999 10.0001 89.7999 10.0001C88.9999 10.0001 88.5999 10.5001 88.5999 11.3001V14.0001H87.7999V7.6001H87.8999Z" fill="white"/>
<path d="M96.4999 12.6C96.3999 13.4 95.5999 14 94.5999 14C93.2999 14 92.4999 13.1 92.4999 11.7C92.4999 10.3 93.2999 9.30005 94.5999 9.30005C95.7999 9.30005 96.5999 10.2 96.5999 11.6V11.9H93.2999C93.2999 12.8 93.7999 13.3 94.5999 13.3C95.1999 13.3 95.5999 13 95.6999 12.6H96.4999ZM93.1999 11.2H95.6999C95.6999 10.4 95.1999 9.90005 94.4999 9.90005C93.7999 9.90005 93.2999 10.5 93.1999 11.2Z" fill="white"/>
<path d="M41.3999 25.6001H36.3999L35.0999 29.2001H33.3999L38.0999 16.5001H39.6999L44.3999 29.2001H42.6999L41.3999 25.6001ZM36.7999 24.2001H40.8999L38.8999 18.4001H38.7999L36.7999 24.2001Z" fill="white"/>
<path d="M53.4999 24.6001C53.4999 27.5001 51.8999 29.3001 49.5999 29.3001C48.2999 29.3001 47.1999 28.7001 46.6999 27.7001V32.2001H45.1999V20.1001H46.5999V21.6001C47.1999 20.6001 48.1999 19.9001 49.5999 19.9001C51.9999 19.9001 53.4999 21.8001 53.4999 24.6001ZM51.9999 24.6001C51.9999 22.5001 50.9999 21.2001 49.3999 21.2001C47.7999 21.2001 46.7999 22.6001 46.7999 24.6001C46.7999 26.6001 47.8999 28.0001 49.3999 28.0001C50.9999 28.0001 51.9999 26.7001 51.9999 24.6001Z" fill="white"/>
<path d="M63.0999 24.6001C63.0999 27.5001 61.4999 29.3001 59.1999 29.3001C57.8999 29.3001 56.7999 28.7001 56.2999 27.7001V32.2001H54.7999V20.1001H56.1999V21.6001C56.7999 20.6001 57.7999 19.9001 59.1999 19.9001C61.4999 19.9001 63.0999 21.8001 63.0999 24.6001ZM61.4999 24.6001C61.4999 22.5001 60.4999 21.2001 58.8999 21.2001C57.2999 21.2001 56.2999 22.6001 56.2999 24.6001C56.2999 26.6001 57.3999 28.0001 58.8999 28.0001C60.4999 28.0001 61.4999 26.7001 61.4999 24.6001Z" fill="white"/>
<path d="M69.0999 25.8001C69.2999 27.2001 70.4999 28.0001 72.3999 28.0001C74.0999 28.0001 75.3999 27.1001 75.3999 25.8001C75.3999 24.7001 74.6999 24.0001 72.8999 23.6001L71.4999 23.3001C68.9999 22.7001 67.8999 21.6001 67.8999 19.8001C67.8999 17.7001 69.6999 16.2001 72.3999 16.2001C74.8999 16.2001 76.7999 17.7001 76.7999 19.9001H75.1999C75.0999 18.5001 73.9999 17.7001 72.2999 17.7001C70.6999 17.7001 69.4999 18.5001 69.4999 19.8001C69.4999 20.8001 70.1999 21.5001 71.8999 21.9001L73.2999 22.2001C75.8999 22.8001 76.9999 23.8001 76.9999 25.6001C76.9999 27.9001 75.1999 29.4001 72.2999 29.4001C69.4999 29.4001 67.6999 28.0001 67.4999 25.8001H69.0999Z" fill="white"/>
<path d="M80.2999 17.9001V20.1001H81.9999V21.4001H80.1999V26.8001C80.1999 27.6001 80.5999 28.0001 81.2999 28.0001C81.4999 28.0001 81.7999 28.0001 81.8999 28.0001V29.3001C81.6999 29.3001 81.2999 29.4001 80.8999 29.4001C79.1999 29.4001 78.5999 28.7001 78.5999 27.0001V21.5001H77.1999V20.2001H78.5999V18.0001H80.2999V17.9001Z" fill="white"/>
<path d="M82.5999 24.6001C82.5999 21.7001 84.2999 19.9001 86.7999 19.9001C89.2999 19.9001 90.9999 21.7001 90.9999 24.6001C90.9999 27.5001 89.2999 29.3001 86.7999 29.3001C84.2999 29.4001 82.5999 27.6001 82.5999 24.6001ZM89.4999 24.6001C89.4999 22.4001 88.3999 21.2001 86.7999 21.2001C85.1999 21.2001 84.0999 22.4001 84.0999 24.6001C84.0999 26.8001 85.1999 28.0001 86.7999 28.0001C88.3999 28.0001 89.4999 26.8001 89.4999 24.6001Z" fill="white"/>
<path d="M92.1999 20.1001H93.5999V21.6001C93.8999 20.6001 94.6999 19.9001 95.7999 19.9001C96.0999 19.9001 96.2999 19.9001 96.3999 20.0001V21.5001C96.2999 21.5001 95.9999 21.4001 95.5999 21.4001C94.3999 21.4001 93.5999 22.3001 93.5999 23.5001V29.2001H92.0999V20.1001H92.1999Z" fill="white"/>
<path d="M104.5 26.6001C104.2 28.2001 102.7 29.4001 100.7 29.4001C98.0999 29.4001 96.4999 27.6001 96.4999 24.7001C96.4999 21.9001 98.0999 19.9001 100.6 19.9001C103.1 19.9001 104.6 21.7001 104.6 24.5001V25.1001H97.9999V25.2001C97.9999 26.9001 98.9999 28.1001 100.7 28.1001C101.9 28.1001 102.7 27.5001 103 26.7001H104.5V26.6001ZM98.0999 23.9001H103.1C103.1 22.4001 102.1 21.3001 100.7 21.3001C99.1999 21.2001 98.1999 22.3001 98.0999 23.9001Z" fill="white"/>
</svg>
