<svg width="80" height="80" viewBox="0 0 80 80" fill="none" xmlns="http://www.w3.org/2000/svg">
<path fill-rule="evenodd" clip-rule="evenodd" d="M13.3333 16.6667C11.5076 16.6667 10 18.1743 10 20V60C10 61.8257 11.5076 63.3333 13.3333 63.3333H66.6667C68.4924 63.3333 70 61.8257 70 60V20C70 18.1743 68.4924 16.6667 66.6667 16.6667H13.3333ZM3.33333 20C3.33333 14.4924 7.82572 10 13.3333 10H66.6667C72.1743 10 76.6667 14.4924 76.6667 20V60C76.6667 65.5076 72.1743 70 66.6667 70H13.3333C7.82572 70 3.33333 65.5076 3.33333 60V20Z" fill="#091731"/>
<path fill-rule="evenodd" clip-rule="evenodd" d="M3.93589 18.0883C4.99161 16.5802 7.07004 16.2134 8.57821 17.2691L40 39.2644L71.4218 17.2691C72.93 16.2134 75.0084 16.5802 76.0641 18.0883C77.1198 19.5965 76.753 21.6749 75.2449 22.7307L41.9115 46.064C40.7638 46.8674 39.2362 46.8674 38.0885 46.064L4.75513 22.7307C3.24696 21.6749 2.88018 19.5965 3.93589 18.0883Z" fill="#091731"/>
</svg>
