<svg width="133" height="133" viewBox="0 0 133 133" fill="none" xmlns="http://www.w3.org/2000/svg">
<circle cx="66.5" cy="66.5" r="65" stroke="#FF0101" stroke-width="3"/>
<path fill-rule="evenodd" clip-rule="evenodd" d="M86.5623 45.8878C87.7013 47.1195 87.7013 49.1163 86.5623 50.348L51.5623 88.1935C50.4233 89.4251 48.5766 89.4251 47.4375 88.1935C46.2985 86.9619 46.2985 84.965 47.4375 83.7334L82.4375 45.8878C83.5766 44.6562 85.4233 44.6562 86.5623 45.8878Z" fill="#FF0101"/>
<path fill-rule="evenodd" clip-rule="evenodd" d="M47.4375 45.8878C48.5766 44.6562 50.4233 44.6562 51.5623 45.8878L86.5623 83.7334C87.7013 84.965 87.7013 86.9619 86.5623 88.1935C85.4233 89.4251 83.5766 89.4251 82.4375 88.1935L47.4375 50.348C46.2985 49.1163 46.2985 47.1195 47.4375 45.8878Z" fill="#FF0101"/>
</svg>
